umbra-10.ufo
<glyph name="exclam" format="1">
  <advance width="291"/>
  <unicode hex="0021"/>
  <outline>
    <contour>
      <point x="-27" y="399" type="line"/>
      <point x="-57" y="679" type="line"/>
      <point x="103" y="679" type="line"/>
      <point x="73" y="399" type="line"/>
    </contour>
    <contour>
      <point x="23" y="151" type="line"/>
      <point x="-82" y="256" type="line"/>
      <point x="23" y="362" type="line"/>
      <point x="129" y="256" type="line"/>
    </contour>
  </outline>
</glyph>
<glyph name="quotedbl" format="1">
  <advance width="390"/>
  <unicode hex="0022"/>
  <outline>
    <contour>
      <point x="-47" y="469" type="line"/>
      <point x="-77" y="679" type="line"/>
      <point x="53" y="679" type="line"/>
      <point x="23" y="469" type="line"/>
    </contour>
    <contour>
      <point x="123" y="469" type="line"/>
      <point x="93" y="679" type="line"/>
      <point x="223" y="679" type="line"/>
      <point x="193" y="469" type="line"/>
    </contour>
  </outline>
</glyph>
<glyph name="numbersign" format="1">
  <advance width="600"/>
  <unicode hex="0023"/>
  <outline>
    <contour>
      <point x="-102" y="294" type="line"/>
      <point x="-102" y="389" type="line"/>
      <point x="21" y="389" type="line"/>
      <point x="35" y="469" type="line"/>
      <point x="-52" y="469" type="line"/>
      <point x="-52" y="564" type="line"/>
      <point x="52" y="564" type="line"/>
      <point x="73" y="679" type="line"/>
      <point x="178" y="679" type="line"/>
      <point x="157" y="564" type="line"/>
      <point x="237" y="564" type="line"/>
      <point x="258" y="679" type="line"/>
      <point x="363" y="679" type="line"/>
      <point x="342" y="564" type="line"/>
      <point x="448" y="564" type="line"/>
      <point x="448" y="469" type="line"/>
      <point x="325" y="469" type="line"/>
      <point x="311" y="389" type="line"/>
      <point x="398" y="389" type="line"/>
      <point x="398" y="294" type="line"/>
      <point x="294" y="294" type="line"/>
      <point x="273" y="179" type="line"/>
      <point x="168" y="179" type="line"/>
      <point x="189" y="294" type="line"/>
      <point x="109" y="294" type="line"/>
      <point x="88" y="179" type="line"/>
      <point x="-17" y="179" type="line"/>
      <point x="4" y="294" type="line"/>
    </contour>
    <contour>
      <point x="206" y="389" type="line"/>
      <point x="220" y="469" type="line"/>
      <point x="140" y="469" type="line"/>
      <point x="126" y="389" type="line"/>
    </contour>
  </outline>
</glyph>
<glyph name="parenright" format="1">
  <advance width="232"/>
  <unicode hex="0029"/>
  <outline>
    <contour>
      <point x="-32" y="730" type="line"/>
      <point x="43" y="645"/>
      <point x="80" y="540"/>
      <point x="80" y="435" type="curve" smooth="yes"/>
      <point x="80" y="330"/>
      <point x="43" y="225"/>
      <point x="-32" y="140" type="curve"/>
      <point x="-122" y="140" type="line"/>
      <point x="-72" y="215"/>
      <point x="-48" y="325"/>
      <point x="-48" y="435" type="curve" smooth="yes"/>
      <point x="-48" y="545"/>
      <point x="-72" y="655"/>
      <point x="-122" y="730" type="curve"/>
    </contour>
  </outline>
</glyph>
<glyph name="asterisk" format="1">
  <advance width="459"/>
  <unicode hex="002A"/>
  <outline>
    <contour>
      <point x="70" y="496" type="line"/>
      <point x="43" y="639" type="line"/>
      <point x="173" y="639" type="line"/>
      <point x="145" y="496" type="line"/>
      <point x="257" y="590" type="line"/>
      <point x="322" y="478" type="line"/>
      <point x="183" y="429" type="line"/>
      <point x="322" y="380" type="line"/>
      <point x="257" y="268" type="line"/>
      <point x="145" y="362" type="line"/>
      <point x="173" y="219" type="line"/>
      <point x="43" y="219" type="line"/>
      <point x="70" y="362" type="line"/>
      <point x="-42" y="268" type="line"/>
      <point x="-107" y="380" type="line"/>
      <point x="32" y="429" type="line"/>
      <point x="-107" y="478" type="line"/>
      <point x="-42" y="590" type="line"/>
    </contour>
  </outline>
</glyph>
<glyph name="plus" format="1">
  <advance width="560"/>
  <unicode hex="002B"/>
  <outline>
    <contour>
      <point x="-37" y="369" type="line"/>
      <point x="-37" y="479" type="line"/>
      <point x="88" y="479" type="line"/>
      <point x="88" y="599" type="line"/>
      <point x="228" y="599" type="line"/>
      <point x="228" y="479" type="line"/>
      <point x="353" y="479" type="line"/>
      <point x="353" y="369" type="line"/>
      <point x="228" y="369" type="line"/>
      <point x="228" y="249" type="line"/>
      <point x="88" y="249" type="line"/>
      <point x="88" y="369" type="line"/>
    </contour>
  </outline>
</glyph>
<glyph name="two" format="1">
  <advance width="458"/>
  <unicode hex="0032"/>
  <outline>
    <contour>
      <point x="301" y="522" type="curve" smooth="yes"/>
      <point x="301" y="426"/>
      <point x="188" y="363"/>
      <point x="104" y="301" type="curve"/>
      <point x="298" y="301" type="line"/>
      <point x="298" y="181" type="line"/>
      <point x="-92" y="181" type="line"/>
      <point x="-92" y="331"/>
      <point x="156" y="454"/>
      <point x="156" y="524" type="curve" smooth="yes"/>
      <point x="156" y="545"/>
      <point x="137" y="569"/>
      <point x="89" y="569" type="curve" smooth="yes"/>
      <point x="41" y="569"/>
      <point x="-8" y="530"/>
      <point x="-48" y="492" type="curve"/>
      <point x="-88" y="607" type="line"/>
      <point x="-48" y="654"/>
      <point x="12" y="689"/>
      <point x="109" y="689" type="curve" smooth="yes"/>
      <point x="186" y="689"/>
      <point x="301" y="649"/>
    </contour>
  </outline>
</glyph>
<glyph name="six" format="1">
  <advance width="474"/>
  <unicode hex="0036"/>
  <outline>
    <contour>
      <point x="53" y="341" type="curve" smooth="yes"/>
      <point x="53" y="313"/>
      <point x="72" y="284"/>
      <point x="120" y="284" type="curve" smooth="yes"/>
      <point x="168" y="284"/>
      <point x="187" y="313"/>
      <point x="187" y="341" type="curve" smooth="yes"/>
      <point x="187" y="369"/>
      <point x="168" y="398"/>
      <point x="120" y="398" type="curve" smooth="yes"/>
      <point x="72" y="398"/>
      <point x="53" y="369"/>
    </contour>
    <contour>
      <point x="317" y="341" type="curve" smooth="yes"/>
      <point x="317" y="234"/>
      <point x="242" y="169"/>
      <point x="125" y="169" type="curve" smooth="yes"/>
      <point x="-32" y="169"/>
      <point x="-87" y="294"/>
      <point x="-87" y="411" type="curve" smooth="yes"/>
      <point x="-87" y="538"/>
      <point x="-11" y="689"/>
      <point x="126" y="689" type="curve" smooth="yes"/>
      <point x="203" y="689"/>
      <point x="273" y="654"/>
      <point x="313" y="607" type="curve"/>
      <point x="272" y="501" type="line"/>
      <point x="232" y="539"/>
      <point x="195" y="569"/>
      <point x="147" y="569" type="curve" smooth="yes"/>
      <point x="79" y="569"/>
      <point x="50" y="510"/>
      <point x="44" y="442" type="curve"/>
      <point x="74" y="479"/>
      <point x="120" y="493"/>
      <point x="155" y="493" type="curve" smooth="yes"/>
      <point x="222" y="493"/>
      <point x="317" y="448"/>
    </contour>
  </outline>
</glyph>
<glyph name="colon" format="1">
  <advance width="291"/>
  <unicode hex="003A"/>
  <outline>
    <contour>
      <point x="23" y="436" type="line"/>
      <point x="-82" y="541" type="line"/>
      <point x="23" y="647" type="line"/>
      <point x="129" y="541" type="line"/>
    </contour>
    <contour>
      <point x="23" y="151" type="line"/>
      <point x="-82" y="256" type="line"/>
      <point x="23" y="362" type="line"/>
      <point x="129" y="256" type="line"/>
    </contour>
  </outline>
</glyph>
<glyph name="equal" format="1">
  <advance width="560"/>
  <unicode hex="003D"/>
  <outline>
    <contour>
      <point x="-37" y="289" type="line"/>
      <point x="-37" y="399" type="line"/>
      <point x="353" y="399" type="line"/>
      <point x="353" y="289" type="line"/>
    </contour>
    <contour>
      <point x="-37" y="469" type="line"/>
      <point x="-37" y="579" type="line"/>
      <point x="353" y="579" type="line"/>
      <point x="353" y="469" type="line"/>
    </contour>
  </outline>
</glyph>
<glyph name="C" format="1">
  <advance width="515"/>
  <unicode hex="0043"/>
  <outline>
    <contour>
      <point x="53" y="429" type="curve" smooth="yes"/>
      <point x="53" y="336"/>
      <point x="126" y="284"/>
      <point x="183" y="284" type="curve" smooth="yes"/>
      <point x="244" y="284"/>
      <point x="288" y="307"/>
      <point x="313" y="340" type="curve"/>
      <point x="353" y="213" type="line"/>
      <point x="321" y="181"/>
      <point x="274" y="159"/>
      <point x="193" y="159" type="curve" smooth="yes"/>
      <point x="18" y="159"/>
      <point x="-92" y="280"/>
      <point x="-92" y="429" type="curve" smooth="yes"/>
      <point x="-92" y="578"/>
      <point x="18" y="699"/>
      <point x="193" y="699" type="curve" smooth="yes"/>
      <point x="274" y="699"/>
      <point x="321" y="677"/>
      <point x="353" y="645" type="curve"/>
      <point x="313" y="518" type="line"/>
      <point x="288" y="551"/>
      <point x="244" y="574"/>
      <point x="183" y="574" type="curve" smooth="yes"/>
      <point x="126" y="574"/>
      <point x="53" y="522"/>
    </contour>
  </outline>
</glyph>
<glyph name="D" format="1">
  <advance width="555"/>
  <unicode hex="0044"/>
  <outline>
    <contour>
      <point x="-77" y="179" type="curve"/>
      <point x="-77" y="679" type="line"/>
      <point x="-4" y="679"/>
      <point x="70" y="679"/>
      <point x="143" y="679" type="curve" smooth="yes"/>
      <point x="318" y="679"/>
      <point x="403" y="578"/>
      <point x="403" y="429" type="curve" smooth="yes"/>
      <point x="403" y="280"/>
      <point x="318" y="179"/>
      <point x="143" y="179" type="curve" smooth="yes"/>
      <point x="70" y="179"/>
      <point x="-4" y="179"/>
    </contour>
    <contour>
      <point x="143" y="299" type="line" smooth="yes"/>
      <point x="205" y="299"/>
      <point x="258" y="336"/>
      <point x="258" y="429" type="curve" smooth="yes"/>
      <point x="258" y="522"/>
      <point x="205" y="559"/>
      <point x="143" y="559" type="curve" smooth="yes"/>
      <point x="63" y="559" type="line"/>
      <point x="63" y="299" type="line"/>
    </contour>
  </outline>
</glyph>
<glyph name="G" format="1">
  <advance width="555"/>
  <unicode hex="0047"/>
  <outline>
    <contour>
      <point x="53" y="429" type="curve" smooth="yes"/>
      <point x="53" y="336"/>
      <point x="126" y="284"/>
      <point x="183" y="284" type="curve" smooth="yes"/>
      <point x="217" y="284"/>
      <point x="245" y="291"/>
      <point x="268" y="303" type="curve"/>
      <point x="268" y="374" type="line"/>
      <point x="158" y="374" type="line"/>
      <point x="158" y="469" type="line"/>
      <point x="398" y="469" type="line"/>
      <point x="398" y="253" type="line"/>
      <point x="346" y="201"/>
      <point x="264" y="159"/>
      <point x="183" y="159" type="curve" smooth="yes"/>
      <point x="28" y="159"/>
      <point x="-92" y="280"/>
      <point x="-92" y="429" type="curve" smooth="yes"/>
      <point x="-92" y="578"/>
      <point x="18" y="699"/>
      <point x="193" y="699" type="curve" smooth="yes"/>
      <point x="274" y="699"/>
      <point x="321" y="677"/>
      <point x="353" y="645" type="curve"/>
      <point x="313" y="518" type="line"/>
      <point x="288" y="551"/>
      <point x="244" y="574"/>
      <point x="183" y="574" type="curve" smooth="yes"/>
      <point x="126" y="574"/>
      <point x="53" y="522"/>
    </contour>
  </outline>
</glyph>
<glyph name="H" format="1">
  <advance width="560"/>
  <unicode hex="0048"/>
  <outline>
    <contour>
      <point x="-77" y="179" type="line"/>
      <point x="-77" y="679" type="line"/>
      <point x="63" y="679" type="line"/>
      <point x="63" y="489" type="line"/>
      <point x="253" y="489" type="line"/>
      <point x="253" y="679" type="line"/>
      <point x="393" y="679" type="line"/>
      <point x="393" y="179" type="line"/>
      <point x="253" y="179" type="line"/>
      <point x="253" y="369" type="line"/>
      <point x="63" y="369" type="line"/>
      <point x="63" y="179" type="line"/>
    </contour>
  </outline>
</glyph>
<glyph name="J" format="1">
  <advance width="319"/>
  <unicode hex="004A"/>
  <outline>
    <contour>
      <point x="12" y="189" type="curve" smooth="yes"/>
      <point x="12" y="679" type="line"/>
      <point x="152" y="679" type="line"/>
      <point x="152" y="149" type="line" smooth="yes"/>
      <point x="152" y="52"/>
      <point x="62" y="-3"/>
      <point x="-15" y="-3" type="curve" smooth="yes"/>
      <point x="-82" y="-3"/>
      <point x="-122" y="17"/>
      <point x="-172" y="64" type="curve"/>
      <point x="-122" y="169" type="line"/>
      <point x="-82" y="131"/>
      <point x="-53" y="117"/>
      <point x="-35" y="117" type="curve" smooth="yes"/>
      <point x="-7" y="117"/>
      <point x="12" y="131"/>
    </contour>
  </outline>
</glyph>
<glyph name="L" format="1">
  <advance width="445"/>
  <unicode hex="004C"/>
  <outline>
    <contour>
      <point x="-77" y="179" type="curve"/>
      <point x="-77" y="679" type="line"/>
      <point x="63" y="679" type="line"/>
      <point x="63" y="299" type="line"/>
      <point x="303" y="299" type="line"/>
      <point x="303" y="179" type="line"/>
      <point x="176" y="179"/>
      <point x="50" y="179"/>
    </contour>
  </outline>
</glyph>
<glyph name="M" format="1">
  <advance width="690"/>
  <unicode hex="004D"/>
  <outline>
    <contour>
      <point x="-77" y="179" type="line"/>
      <point x="-77" y="679" type="line"/>
      <point x="63" y="679" type="line"/>
      <point x="223" y="409" type="line"/>
      <point x="383" y="679" type="line"/>
      <point x="523" y="679" type="line"/>
      <point x="523" y="179" type="line"/>
      <point x="383" y="179" type="line"/>
      <point x="383" y="439" type="line"/>
      <point x="223" y="169" type="line"/>
      <point x="63" y="439" type="line"/>
      <point x="63" y="179" type="line"/>
    </contour>
  </outline>
</glyph>
<glyph name="N" format="1">
  <advance width="590"/>
  <unicode hex="004E"/>
  <outline>
    <contour>
      <point x="-77" y="179" type="line"/>
      <point x="-77" y="679" type="line"/>
      <point x="93" y="679" type="line"/>
      <point x="283" y="362" type="line"/>
      <point x="283" y="679" type="line"/>
      <point x="423" y="679" type="line"/>
      <point x="423" y="179" type="line"/>
      <point x="253" y="179" type="line"/>
      <point x="63" y="496" type="line"/>
      <point x="63" y="179" type="line"/>
    </contour>
  </outline>
</glyph>
<glyph name="T" format="1">
  <advance width="480"/>
  <unicode hex="0054"/>
  <outline>
    <contour>
      <point x="-102" y="559" type="line"/>
      <point x="-102" y="679" type="line"/>
      <point x="338" y="679" type="line"/>
      <point x="338" y="559" type="line"/>
      <point x="188" y="559" type="line"/>
      <point x="188" y="179" type="line"/>
      <point x="48" y="179" type="line"/>
      <point x="48" y="559" type="line"/>
    </contour>
  </outline>
</glyph>
<glyph name="V" format="1">
  <advance width="580"/>
  <unicode hex="0056"/>
  <outline>
    <contour>
      <point x="448" y="679" type="line"/>
      <point x="248" y="179" type="line"/>
      <point x="88" y="179" type="line"/>
      <point x="-112" y="679" type="line"/>
      <point x="38" y="679" type="line"/>
      <point x="168" y="318" type="line"/>
      <point x="298" y="679" type="line"/>
    </contour>
  </outline>
</glyph>
<glyph name="Y" format="1">
  <advance width="540"/>
  <unicode hex="0059"/>
  <outline>
    <contour>
      <point x="218" y="359" type="line"/>
      <point x="218" y="179" type="line"/>
      <point x="78" y="179" type="line"/>
      <point x="78" y="359" type="line"/>
      <point x="-112" y="679" type="line"/>
      <point x="48" y="679" type="line"/>
      <point x="148" y="479" type="line"/>
      <point x="248" y="679" type="line"/>
      <point x="408" y="679" type="line"/>
    </contour>
  </outline>
</glyph>
<glyph name="backslash" format="1">
  <advance width="460"/>
  <unicode hex="005C"/>
  <outline>
    <contour>
      <point x="328" y="179" type="line"/>
      <point x="198" y="179" type="line"/>
      <point x="-112" y="679" type="line"/>
      <point x="18" y="679" type="line"/>
    </contour>
  </outline>
</glyph>
<glyph name="c" format="1">
  <advance width="404"/>
  <unicode hex="0063"/>
  <outline>
    <contour>
      <point x="-87" y="371" type="curve" smooth="yes"/>
      <point x="-87" y="498"/>
      <point x="8" y="574"/>
      <point x="125" y="574" type="curve" smooth="yes"/>
      <point x="163" y="574"/>
      <point x="211" y="563"/>
      <point x="237" y="539" type="curve"/>
      <point x="197" y="436" type="line"/>
      <point x="185" y="451"/>
      <point x="158" y="464"/>
      <point x="135" y="464" type="curve" smooth="yes"/>
      <point x="77" y="464"/>
      <point x="48" y="419"/>
      <point x="48" y="371" type="curve" smooth="yes"/>
      <point x="48" y="323"/>
      <point x="77" y="279"/>
      <point x="135" y="279" type="curve" smooth="yes"/>
      <point x="158" y="279"/>
      <point x="185" y="293"/>
      <point x="197" y="307" type="curve"/>
      <point x="237" y="204" type="line"/>
      <point x="211" y="180"/>
      <point x="163" y="169"/>
      <point x="125" y="169" type="curve" smooth="yes"/>
      <point x="8" y="169"/>
      <point x="-87" y="254"/>
    </contour>
  </outline>
</glyph>
<glyph name="f" format="1">
  <advance width="333"/>
  <unicode hex="0066"/>
  <outline>
    <contour>
      <point x="77" y="179" type="line"/>
      <point x="-58" y="179" type="line"/>
      <point x="-58" y="464" type="line"/>
      <point x="-102" y="464" type="line"/>
      <point x="-102" y="564" type="line"/>
      <point x="-58" y="564" type="line"/>
      <point x="-58" y="567" type="line" smooth="yes"/>
      <point x="-58" y="664"/>
      <point x="27" y="719"/>
      <point x="104" y="719" type="curve" smooth="yes"/>
      <point x="171" y="719"/>
      <point x="201" y="704"/>
      <point x="251" y="657" type="curve"/>
      <point x="211" y="557" type="line"/>
      <point x="171" y="595"/>
      <point x="142" y="609"/>
      <point x="124" y="609" type="curve" smooth="yes"/>
      <point x="101" y="609"/>
      <point x="84" y="600"/>
      <point x="79" y="564" type="curve"/>
      <point x="163" y="564" type="line"/>
      <point x="163" y="464" type="line"/>
      <point x="77" y="464" type="line"/>
    </contour>
  </outline>
</glyph>
<glyph name="v" format="1">
  <advance width="465"/>
  <unicode hex="0076"/>
  <outline>
    <contour>
      <point x="38" y="179" type="line"/>
      <point x="-112" y="564" type="line"/>
      <point x="33" y="564" type="line"/>
      <point x="114" y="280" type="line"/>
      <point x="188" y="564" type="line"/>
      <point x="333" y="564" type="line"/>
      <point x="193" y="179" type="line"/>
    </contour>
  </outline>
</glyph>
<glyph name="w" format="1">
  <advance width="695"/>
  <unicode hex="0077"/>
  <outline>
    <contour>
      <point x="13" y="179" type="line"/>
      <point x="-107" y="564" type="line"/>
      <point x="38" y="564" type="line"/>
      <point x="91" y="307" type="line"/>
      <point x="168" y="564" type="line"/>
      <point x="283" y="564" type="line"/>
      <point x="366" y="307" type="line"/>
      <point x="413" y="564" type="line"/>
      <point x="558" y="564" type="line"/>
      <point x="448" y="179" type="line"/>
      <point x="303" y="179" type="line"/>
      <point x="227" y="386" type="line"/>
      <point x="158" y="179" type="line"/>
    </contour>
  </outline>
</glyph>
<glyph name="z" format="1">
  <advance width="425"/>
  <unicode hex="007A"/>
  <outline>
    <contour>
      <point x="-67" y="434" type="line"/>
      <point x="-67" y="564" type="line"/>
      <point x="53" y="564"/>
      <point x="173" y="564"/>
      <point x="293" y="564" type="curve"/>
      <point x="114" y="309" type="line"/>
      <point x="268" y="309" type="line"/>
      <point x="268" y="179" type="line"/>
      <point x="141" y="179"/>
      <point x="15" y="179"/>
      <point x="-112" y="179" type="curve"/>
      <point x="67" y="434" type="line"/>
    </contour>
  </outline>
</glyph>
